<?xml version="1.0" encoding="UTF-8"?>
<svg width="132.35mm" height="32.156mm" version="1.1" viewBox="0 0 132.35 32.156" xmlns="http://www.w3.org/2000/svg" xmlns:cc="http://creativecommons.org/ns#" xmlns:dc="http://purl.org/dc/elements/1.1/" xmlns:rdf="http://www.w3.org/1999/02/22-rdf-syntax-ns#" nighteye="disabled">
<metadata>
<rdf:RDF>
<cc:Work rdf:about="">
<dc:format>image/svg+xml</dc:format>
<dc:type rdf:resource="http://purl.org/dc/dcmitype/StillImage"/>
<dc:title/>
</cc:Work>
</rdf:RDF>
</metadata>
<g transform="translate(-39.66 -134.27)">
<path d="m85.991 150.23c0.0016-2e-3 0.0041-3e-3 0.0057-5e-3 0.12197-0.14355 0.22694-0.30445 0.33228-0.44958-0.09466 0.12345-0.24814 0.33747-0.33797 0.45423z" fill="#2e3440" style="font-feature-settings:normal;font-variant-caps:normal;font-variant-ligatures:normal;font-variant-numeric:normal"/>
<g fill="#e1e1e1">
<path d="m95.512 137.7c-0.32042 9e-3 -0.63509 0.19273-0.8599 0.43253-0.3397 0.35969-0.55963 0.81921-0.85938 1.1989-0.17984 0.21982-0.39928 0.41994-0.55914 0.63976-0.65945 0.91922-0.57976 0.95921-1.2392 1.8784-0.63944 0.91923-0.65934 0.89927-1.3188 1.8185-1.9354 2.6466-1.6892 2.3394-0.29559 2.3771 0.50437-0.03 1.2999 0.0888 1.5544-0.29921 0.6195-0.85928 0.65952-0.83933 1.279-1.6986 0.59949-0.85926 0.49932-0.91908 1.1188-1.7983 0.26977-0.37968 0.72413-0.56947 1.1787-0.56947 0.45461 0 0.90948 0.18979 1.1793 0.56947 0.61947 0.85928 0.53963 0.91943 1.1591 1.7787 0.61947 0.85927 0.57942 0.85914 1.1989 1.7384 0.39966 0.55953 0.02024 1.3188-0.67903 1.3188h-1.9187c-0.46368 0.0217-0.96914 0.0219-1.3596 0.0217-0.13244-1e-3 -0.1646-7.9e-4 -0.27905-2e-3v1e-3c-0.94641 4e-3 -2.4655 0.0306-3.7874 0.11783-0.45976 0.0586-0.9124 0.14876-1.3436 0.29249-0.30974 0.0999-0.62425 0.22367-0.93431 0.36948-0.31006 0.14582-0.61539 0.31371-0.90641 0.5023-0.29101 0.18859-0.56801 0.39755-0.82062 0.6258-0.25242 0.22808-0.48066 0.47545-0.67541 0.74001-0.0043 6e-3 -0.0108 0.0147-0.01497 0.0202-0.10534 0.14513-0.21031 0.30603-0.33228 0.44958-0.0016 2e-3 -4e-3 3e-3 -0.0057 5e-3 -0.14108 0.18338-0.27761 0.35648-0.53123 0.71314-0.3597 0.49957-0.22002 1.2194 0.27957 1.5591 0.27974 0.19984 0.57994 0.33953 0.89969 0.21963 0.35968-0.13988 0.5791-0.51932 0.79892-0.81907 0.77936-1.0591 2.0983-1.8384 3.3373-2.2381 0.43118-0.14372 0.88383-0.23386 1.3436-0.29248 1.3218-0.0872 2.841-0.1137 3.7874-0.11783 0.92788-0.0388 1.6128-0.0675 2.2428-0.0692 0.71939 0 1.4391 0.1998 2.0986 0.41961 1.2789 0.41965 2.7373 1.3185 3.4566 2.4975 0.06 0.0799 0.0999 0.18001 0.17983 0.25994 0.15987 0.17985 0.37981 0.25958 0.6196 0.27957 0.89924 0.0999 1.5188-0.87896 0.97927-1.6583-0.63947-0.89924-0.63921-0.91925-1.2986-1.8185-0.63947-0.91922-0.59991-0.93906-1.2594-1.8583-0.63947-0.91921-0.65933-0.89962-1.3188-1.7988-0.65945-0.91923-0.67933-0.89928-1.3188-1.8185-0.65945-0.89924-0.53947-0.99883-1.1989-1.8981-0.83931-1.1989-1.6985-2.4182-2.6577-3.5372-0.15986-0.19983-0.35965-0.41927-0.59945-0.4992-0.10491-0.04-0.21255-0.0563-0.31936-0.0532z" style="font-feature-settings:normal;font-variant-caps:normal;font-variant-ligatures:normal;font-variant-numeric:normal"/>
<path d="m123.12 142.23c-1e-5 0.0527 2e-3 0.14965 6e-3 0.20516 0.0161 0.14223 0.0803 0.28016 0.15535 0.40462 0.0819 0.1356 0.19387 0.25706 0.32504 0.35709 0.13118 0.10004 0.28157 0.17879 0.44029 0.22841 0.15873 0.0491 0.32588 0.0706 0.49041 0.0548 0.15423-0.0151 0.29106-0.0628 0.40824-0.13591 0.21739-0.12793 0.26575-0.2877 0.26504-0.43822-9e-3 -0.21233-0.018-0.95782-0.018-1.9156 0-1.0591 0.0202-1.0591 0.0202-2.1182 0-0.59949-0.41956-1.0389-1.0191-1.0588-0.63944-0.02-1.2594 0.39924-1.2594 1.0387 0 1.0791 0.22014 1.0794 0.22014 2.1585 0 0.60983-0.0175 0.90948-0.0341 1.2196z" style="font-feature-settings:normal;font-variant-caps:normal;font-variant-ligatures:normal;font-variant-numeric:normal"/>
<path d="m108.59 137.74c-0.22981 2e-3 -0.44923 0.0672-0.61908 0.21705-0.11991 0.11989-0.21979 0.2799-0.29973 0.43976-0.06 0.1199-0.10006 0.25993-0.14004 0.37982-0.15986 0.63946 0.0198 1.4185 0.0599 2.0779 0.0399 0.75936 0.06 1.4987 0.06 2.2381 0 1.0591-0.14004 1.0591-0.14004 2.1182 0 1.0791 0.0599 1.0793 0.0599 2.1384 0 1.0591-0.0997 1.0591-0.0997 2.1182 0 1.0591 0.0599 1.0591 0.0599 2.1182 0 0.59949 0.49966 1.1588 1.0992 1.1787 0.63944 0.02 1.079-0.51947 1.079-1.139 0-1.0991 0.11989-1.0991 0.11989-2.1782 0-1.0791-0.0801-1.0789-0.0801-2.158s0.0202-1.0789 0.0202-2.158c0-0.77933 0.43972-1.4591 1.0392-1.7389 0.61947-0.29974 1.4784-0.27943 2.0779 0.22014 0.87927 0.73938 0.83916 0.7794 1.7384 1.5188 0.87924 0.7194 0.7997 0.81919 1.679 1.5586 0.89923 0.71939 0.99917 0.59956 1.8784 1.3389 0.87927 0.73938 0.83915 0.7794 1.7384 1.5188 0.87926 0.71939 0.81935 0.79903 1.6986 1.5384 0.61947 0.49958 1.2987 1.1792 2.0381 1.479 0.35971 0.15986 0.79925 0.19983 1.139 0 0.11991-0.0799 0.22014-0.17982 0.28009-0.29972 0.0799-0.13988 0.0796-0.27973 0.0796-0.41962 0.0999-1.4787 0.0403-2.9975 0.0403-4.4762 0-1.0588 0.12312-1.9554 0.11989-2.1177v-5.3e-4c-5e-3 -0.0747-0.0237-0.12425-0.0548-0.17725-0.0756-0.12849-0.17955-0.2407-0.30232-0.33125-0.12278-0.0905-0.26457-0.15957-0.41701-0.20205-0.15243-0.0423-0.31555-0.0579-0.48008-0.0419-0.15388 0.0203-0.29807 0.0666-0.42736 0.13384-0.18531 0.0936-0.28272 0.12046-0.39284 0.24182-0.17163 0.21298-0.15826 0.32902-0.17849 0.57691 0 0.089-0.0104 0.22979-0.0312 0.36621-0.17344 0.52659-0.60702 0.89447-1.0733 1.1121-0.61947 0.27976-1.2588 0.23965-1.8583-0.25993-0.89923-0.71939-0.99921-0.59956-1.8784-1.3389-0.87927-0.71939-0.87929-0.73943-1.7585-1.4588-0.89925-0.73938-0.87895-0.73909-1.7782-1.4785-0.87923-0.73937-0.7997-0.81918-1.679-1.5586-0.89924-0.73937-0.93908-0.67983-1.7983-1.4392-0.61947-0.51956-1.199-1.1389-1.9384-1.4986-0.20981-0.0999-0.44973-0.1596-0.67954-0.1571z" style="font-feature-settings:normal;font-variant-caps:normal;font-variant-ligatures:normal;font-variant-numeric:normal"/>
<path d="m130.01 143.11c0-1.0791-0.11991-1.0791-0.11991-2.1382 0-1.0591-0.0399-1.0591-0.0399-2.1182 0-0.61948-0.39968-1.159-1.0192-1.159s-1.199 0.53954-1.199 1.159c0 1.0591 0.15987 1.0591 0.15987 2.1182 0 1.0591-0.11989 1.0591-0.11989 2.1382 0 1.0591-0.0201 1.0591-0.0201 2.1182 0 1.0591 0.15986 1.0591 0.15986 2.1382 0 1.0591-0.17984 1.0591-0.17984 2.1182 0 1.0591 0.0799 1.0591 0.0799 2.1382 0 0.5995 0.49959 1.0591 1.119 1.0591 0.61947 0 0.99915-0.45961 0.99915-1.0591 0-1.0791 0.04-1.0791 0.04-2.1382 0-1.0591 0.0799-1.0591 0.0799-2.1182 0-1.0791-0.06-1.0791-0.06-2.1382 0-1.0591 0.1199-1.0591 0.1199-2.1182z" style="font-feature-settings:normal;font-variant-caps:normal;font-variant-ligatures:normal;font-variant-numeric:normal"/>
<path d="m140.53 150.89c-0.41679 0.0166-0.65676 0.1338-0.69398 0.15627-0.1356 0.0819-0.25757 0.19335-0.3576 0.32452-0.10004 0.13117-0.17829 0.28208-0.22789 0.4408-0.049 0.15873-0.0712 0.32536-0.0553 0.4899 0.0151 0.15422 0.0633 0.29106 0.13643 0.40824 0.0731 0.11718 0.17169 0.21459 0.2868 0.29197 0.0625 0.0483 0.19477 0.0924 0.52865 0.10707l0.29818-7e-3c0.74184 0.0112 0.99997 0.0461 2.0159 0.0165l0.76688-0.046c0.48216 3e-3 0.79268 0.0315 1.5777 0.0315 1.0591 0 1.0591 0.0202 2.1182 0.0202 0.5995 0 1.0394-0.41956 1.0594-1.0191 0.02-0.63944-0.39975-1.2588-1.0392-1.2588-1.0791 0-1.2324 0.10697-2.3115 0.10697-1.0791 0-0.95593-0.0475-2.035-0.0475-0.86076-0.0431-1.1939-0.0242-2.0676-0.0157z" style="font-feature-settings:normal;font-variant-caps:normal;font-variant-ligatures:normal;font-variant-numeric:normal"/>
<path d="m134.55 147.87c-0.17597-0.4696-0.32467-0.54381-0.77412-0.71107-0.15243-0.0423-0.31554-0.0579-0.48007-0.0419-0.15388 0.0203-0.29807 0.0666-0.42736 0.13384-0.1293 0.0672-0.24329 0.15557-0.33694 0.26045-0.0985 0.10675-0.1629 0.19209-0.16639 0.35088 0.0196 0.75561 0.23489 1.3368 0.44647 1.8634 0.27977 0.65944 0.55978 1.3188 1.0594 1.7983 0.49959 0.49958 1.1239 0.88452 1.7834 1.1643 0.68316 0.26931 1.5251 0.48726 1.9544 0.33745 0.16111-0.0756 0.24065-0.17901 0.33125-0.30179 0.0905-0.12278 0.15956-0.2646 0.20206-0.41703 0.0423-0.15243 0.0573-0.31554 0.0413-0.48007-0.0203-0.15388-0.0661-0.29859-0.13333-0.42788-0.13006-0.27145-0.24801-0.44296-0.56534-0.49816-0.37774-0.0576-1.2952-0.28894-1.9751-1.0154-0.39254-0.39253-0.66496-0.79466-0.81747-1.3563-0.0736-0.27553-0.0644-0.44794-0.14215-0.65904z" style="font-feature-settings:normal;font-variant-caps:normal;font-variant-ligatures:normal;font-variant-numeric:normal"/>
<path d="m142.46 137.27c-1.199 0-1.1992 0.0599-2.3782 0.0599h-2.3781c-0.7194 0-1.4586 0.10005-2.0981 0.37982-0.65944 0.25978-1.1189 0.83936-1.6185 1.3389-0.49959 0.49958-1.0194 0.97922-1.2992 1.6387-0.25977 0.63946-0.43977 1.3385-0.43977 2.0779 0 1.0322 0.0252 1.305 0.0341 2.0815-2e-3 0.0396 3e-3 -0.0435 0 0 0.0172 0.27299 0.0439 0.36272 0.14454 0.56319 0.0819 0.1356 0.2824 0.30364 0.41357 0.40367 0.13117 0.10004 0.28156 0.17879 0.44028 0.22841 0.15873 0.0491 0.32588 0.0706 0.49041 0.0548 0.15423-0.0151 0.29106-0.0628 0.40824-0.13591 0.11718-0.0732 0.21458-0.17169 0.29197-0.2868 0.10857-0.17432 0.12793-0.49346 0.14263-0.82734-0.0176-0.77631-0.0677-1.0489-0.0677-2.081 0-0.87926 0.4399-1.579 0.99942-2.1585 0.57952-0.57951 1.2787-1.1188 2.158-1.1188 1.179 0 1.1709 0.1204 2.3699 0.1204 1.179 0 1.1874-0.1204 2.3864-0.1204 1.179 0 1.1704-0.0548 2.3694-0.0548 0.37783 0 0.47987-4e-3 0.79013 1e-3 0.38043 6e-3 0.50453 0.0587 0.87488 0.0589 0.67238 1e-3 0.88349-3.5e-4 1.2066-0.34778 0.0905-0.12278 0.15955-0.2646 0.20205-0.41703 0.0423-0.15243 0.0579-0.31555 0.0419-0.48008-0.0203-0.15387-0.0666-0.29806-0.13384-0.42736-0.0672-0.1293-0.15557-0.24329-0.26045-0.33693-0.22849-0.17309-0.3807-0.15092-0.78083-0.14728l-1.9322-0.0326c-1.199 6e-3 -1.1986-0.0346-2.3776-0.0346z" style="font-feature-settings:normal;font-variant-caps:normal;font-variant-ligatures:normal;font-variant-numeric:normal"/>
</g>
<path d="m168.62 144.12v0.0114c0.33967-8e-3 0.30287-5e-3 0.38655 1e-3 -0.0164-9e-5 -0.0169-2e-3 -0.0341-2e-3 -0.17645 0-0.23762-7e-3 -0.35293-0.0103z" fill="#b48ead" style="font-feature-settings:normal;font-variant-caps:normal;font-variant-ligatures:normal;font-variant-numeric:normal"/>
<path d="m161.05 149.44c-0.69989 0.20616-0.86858 0.16735-1.7746 0.16735-1.8479-0.0495-0.46347-0.10084-1.7254-0.10455-0.52274 0-1.0106-0.31363-1.028-0.83635-0.0173-0.55757 0.47046-1.1151 1.0106-1.1151 1.9156 0.2512 0.47194 0.0125 2.2307 0 1.0295-0.16592 2.0754 0.99304 1.2868 1.8887z" fill="#c3c3c3" style="font-feature-settings:normal;font-variant-caps:normal;font-variant-ligatures:normal;font-variant-numeric:normal"/>
<path d="m160.5 140.7c0.72714-0.21419 0.90241-0.17387 1.8437-0.17387 1.9198 0.0514 0.48151 0.10477 1.7926 0.10862 0.54307 0 1.05 0.32585 1.068 0.86892 0.018 0.57927-0.48875 1.1586-1.0499 1.1586-1.9902-0.26098-0.49029-0.013-2.3175 0-1.0696 0.17239-2.1562-1.0317-1.3369-1.9622z" fill="#e1e1e1" style="font-feature-settings:normal;font-variant-caps:normal;font-variant-ligatures:normal;font-variant-numeric:normal"/>
<path d="m164.42 147.57c-0.23169-0.0109-0.415-0.0304-0.9674 3e-3 -0.14293 9e-3 -0.27594 0.0499-0.394 0.1167-0.11801 0.0668-0.22123 0.15865-0.30489 0.26788-0.0836 0.10924-0.14778 0.23597-0.1876 0.37203-0.0398 0.13607-0.055 0.28187-0.0414 0.42913 0.0352 0.27552 0.16557 0.51748 0.35634 0.68634 0.1324 0.11724 0.3198 0.13832 0.49876 0.1719 0.19499 0.0191 0.35108 0.0433 0.70202 0.0433 0.27755 0 0.52973 7e-3 0.78422 0.0163 0.31662-6e-3 0.35286-0.012 0.50691-0.0746 0.12006-0.0706 0.22468-0.16759 0.30929-0.28232 0.0845-0.11473 0.14915-0.24716 0.18885-0.38959 0.0396-0.14245 0.0538-0.29483 0.0389-0.44858-0.0378-0.28757-0.17226-0.53956-0.36826-0.71457-0.0998-0.0921-0.21394-0.13488-0.3275-0.15559-0.26646-0.031-0.55841-0.0297-0.79426-0.0414z" fill="#e1e1e1" style="font-feature-settings:normal;font-variant-caps:normal;font-variant-ligatures:normal;font-variant-numeric:normal"/>
<path d="m157.24 142.75v-4e-3c0.25637 5e-3 0.50269 0.01 0.81405 0.01 0.60297 6e-3 0.72715 9e-3 0.94897-0.10975 0.10987-0.0702 0.2056-0.16657 0.28303-0.2806 0.0773-0.11402 0.13647-0.24565 0.1728-0.38722 0.0362-0.14157 0.0492-0.29303 0.0356-0.44584-0.0347-0.28582-0.15763-0.53628-0.33699-0.71022-0.0913-0.0916-0.19576-0.13405-0.29968-0.15464-0.43554-0.0402-0.91279-0.0403-1.3038-0.0649-0.49343-0.0157-0.69853 0.11037-1.3973 0.11037-0.92988 0-0.93012-0.0736-1.86-0.0736-0.92989 0-0.93013 0.0917-1.8601 0.0917-0.92991 0-0.92958-0.14654-1.8595-0.14654-0.52415 0-0.93013 0.53225-0.91338 1.1199 0.0339 0.55092 0.42282 0.99207 0.93003 0.99207 0.92991 0 0.93016-0.0736 1.86-0.0736 0.92992 0 0.92984 0.14653 1.8428 0.14653 0.92992 0 0.93016-0.0729 1.86-0.0729 0.54178 0 0.80513 0.0277 1.0833 0.0536z" fill="#a9a9a9" style="font-feature-settings:normal;font-variant-caps:normal;font-variant-ligatures:normal;font-variant-numeric:normal"/>
<path d="m163.22 146.14c0.36441-0.0233 0.47258-0.447 0.45633-1.0172-0.0466-0.65008-0.38441-0.75093-0.94722-0.77814-1.0027 0-0.60654-0.0426-1.6093-0.0426-1.0027 0-1.0031-0.12364-2.0058-0.12364-1.0027 0-1.0025 0.19353-2.0052 0.19353-1.1465-7e-3 -0.94105-0.19215-2.4675-0.1129-0.54534 0-1.0377 0.56303-1.0202 1.126 0.0178 0.52775 0.50979 0.84401 1.0376 0.84401 1.0609 2e-3 0.74211 6e-3 2.133 0.11349 0.91476 0 0.91484-0.0878 1.8296-0.0878 0.91474 0 0.91543-0.0179 1.8302-0.0179 0.91476 0 0.91481-0.0878 1.8296-0.0878 0.46949 0 0.69873-4e-3 0.93899-9e-3z" fill="#a9a9a9" style="font-feature-settings:normal;font-variant-caps:normal;font-variant-ligatures:normal;font-variant-numeric:normal"/>
<path d="m152.79 149.55c0.30525 7e-3 0.62729 0.0127 0.87022 0.0129 0.42111 0 0.62981-0.029 0.84221-0.057 0.0579-0.0142 0.11472-0.0355 0.1608-0.0498 0.11612-0.0683 0.2173-0.16209 0.29914-0.27305 0.0817-0.11096 0.14424-0.23905 0.18263-0.37681 0.0382-0.13776 0.0521-0.28515 0.0375-0.43385-0.0366-0.27813-0.1666-0.52186-0.35618-0.69112-0.0966-0.0891-0.2069-0.13045-0.31674-0.15048-0.10978-0.02-0.21904-0.0188-0.31248-0.0231-0.44341 0-0.73301-0.0493-1.1371-0.0431-0.55636 7.1e-4 -0.78771 0.0716-1.5752 0.0716-2.1469-0.0476-0.19574-0.0492-1.9914-0.054-0.53608 0-0.94726 0.42868-0.98298 0.96478-0.0177 0.57185 0.41082 1.0904 0.96478 1.0904 1.4189-0.0167 1.7262-0.022 2.0072-0.0244 0.45331-7e-3 0.8867 0.0317 1.3076 0.037z" fill="#7f7f7f" style="font-feature-settings:normal;font-variant-caps:normal;font-variant-ligatures:normal;font-variant-numeric:normal"/>
<path d="m150.23 146.27c0.32114-3e-3 0.57712-0.0234 0.79498-0.0334 0.0678 0 0.18313-0.011 0.26188-7e-3 0.292-8e-3 0.52864-0.0243 0.70691-0.0478h5.3e-4c0.0546-0.0197 0.11644-0.0224 0.16616-0.0516 0.12047-0.0709 0.22545-0.16816 0.31036-0.28327 0.0847-0.11511 0.14963-0.24799 0.18946-0.3909 0.0397-0.14292 0.0533-0.29582 0.0384-0.45008-0.038-0.28854-0.17284-0.54138-0.3695-0.71698-0.10011-0.0925-0.21465-0.13532-0.32859-0.15611-0.3057-0.0332-0.6417-0.0321-0.91274-0.046-0.62071 2e-3 -1.0149 0.063-1.4459 0.063-0.16622-3e-3 -0.23603 0.0165-0.39092 0.0365-0.27838 0.0529-0.36001 0.048-0.48783 0.0661-0.11719 0.0166-0.28057 0.0415-0.94738 0-0.0426 3e-3 -0.0909 4e-3 -0.13407 8e-3 -0.13338 0.015-0.26293 0.0536-0.37959 0.12401-0.12713 0.0768-0.24103 0.18169-0.33487 0.30467-0.0938 0.12298-0.16752 0.26412-0.21403 0.41294-0.0466 0.14881-0.0666 0.30525-0.0516 0.45951 0.0141 0.14461 0.0592 0.27286 0.12778 0.38273 0.0686 0.10986 0.16084 0.20127 0.26879 0.27382 0.12353 0.0954 1.1675 0.10043 1.6348 0.10135 0.52977 2e-3 1.0131-0.0216 1.497-0.0489z" fill="#7f7f7f" style="font-feature-settings:normal;font-variant-caps:normal;font-variant-ligatures:normal;font-variant-numeric:normal"/>
<path d="m68.274 152.93c0.14348-0.0787 0.26846-0.18705 0.36953-0.31493 0.10105-0.1279 0.17852-0.27525 0.22591-0.43403 0.04709-0.15877 0.06424-0.32872 0.04632-0.50009-0.02266-0.16028-0.07411-0.31045-0.14915-0.4451-0.07503-0.13466-0.17369-0.2538-0.29081-0.35133-0.31049-0.24818-0.5059-0.19079-1.5252-0.21167-1.0579 0-1.117 0.0601-2.1749 0.0601-0.59882 0-1.1575 0.49909-1.1774 1.0979-0.01999 0.63872 0.5191 1.1486 1.1379 1.1486 1.0978 0 1.1567 0.0495 2.2346 0.0495 0.45505-0.0187 1.0097 0.0344 1.3033-0.0989z" fill="#ff0d68" style="font-feature-settings:normal;font-variant-caps:normal;font-variant-ligatures:normal;font-variant-numeric:normal"/>
<path d="m77.969 144.31c-0.15141 0.0853-0.28712 0.20165-0.39881 0.33827-0.1117 0.13663-0.19937 0.29362-0.25479 0.45895-0.05482 0.16533-0.07862 0.339-0.06094 0.51038 0.01683 0.16065 0.07066 0.30327 0.15232 0.42532 0.2933 0.39946 0.8339 0.31758 1.6403 0.29673 0.61877 0 1.0979 0.3195 1.4971 0.73867 0.41919 0.39921 0.69871 0.87795 0.69871 1.4967 0 0.63873-0.13964 1.258-0.53886 1.6771-0.3992 0.39922-1.0382 0.67814-1.657 0.67814-1.1178 0-1.1178-0.0597-2.2156-0.0597-1.0978 0-1.0974-0.0396-2.2152-0.0396-1.0978 0-1.0982-0.0997-2.216-0.0997-0.59075 9e-3 -1.132-0.0726-1.6368 0.14042-0.1514 0.0853-0.28712 0.20165-0.39881 0.33827-0.1117 0.13663-0.19936 0.29362-0.25479 0.45895-0.05481 0.16533-0.07862 0.339-0.06094 0.51039 0.14024 1.1024 1.0671 0.8665 2.3513 0.90721 1.1178 0 1.1182-0.0597 2.216-0.0597 1.0978 0 1.0974 0.0396 2.2152 0.0396 1.0978 0 1.0978-0.0997 2.2156-0.0997 0.79842 0 1.517-0.21936 2.1756-0.59861 0.67866-0.39921 1.2376-0.89839 1.6368-1.577 0.37925-0.6587 0.75884-1.3976 0.75884-2.216 0-0.79842-0.43934-1.5167-0.81859-2.1555-0.37926-0.6786-0.79829-1.417-1.4769-1.7962-0.65872-0.37925-1.4773-0.3996-2.2758-0.3996-0.48471 1e-3 -0.80659-0.051-1.0781 0.0863z" fill="#ff0068" style="font-feature-settings:normal;font-variant-caps:normal;font-variant-ligatures:normal;font-variant-numeric:normal"/>
<path d="m81.793 139.56c0.23421 5e-3 0.10054-8e-3 0.81494-8e-3 0.59881 0 1.0384-0.4192 1.0583-1.018 0.02-0.63871-0.39944-1.2573-1.0382-1.2573-0.38206-0.0287-0.91655-0.0117-1.1236 0.0392-0.33369 0.0588-0.50706 0.1559-0.70632 0.47597-0.09072 0.1731-0.15032 0.32349-0.19994 0.48221-0.04914 0.15873-0.07114 0.32588-0.05529 0.49041 0.01508 0.15423 0.06328 0.29055 0.13642 0.40773 0.24582 0.39866 0.64435 0.39476 1.1136 0.38757z" fill="#ff0d68" style="font-feature-settings:normal;font-variant-caps:normal;font-variant-ligatures:normal;font-variant-numeric:normal"/>
<path d="m78.468 137.34c-0.50576 0.0227-0.82578 0.0589-1.6366 0.0589-1.0978 0-1.0971-0.0997-2.2149-0.0997-1.0014 0-1.1655 0.0461-2.0216 0.0548-1.1168 8e-3 -1.3306 0.50913-1.3043 1.5022 0.01685 0.16065 0.07078 0.30324 0.15244 0.4253 0.08167 0.12205 0.19134 0.22377 0.31988 0.30437 0.20042 0.0894 0.3438 0.0529 0.60565 0.0693 0.0154-2e-5 0.01574-5.2e-4 0.03152-5.2e-4h2.2159c1.0978 0 1.0976-0.0801 2.2154-0.0801 0.6828 0 1.0117 7e-3 1.3782 0.0124 0.19328-0.0122 0.42364-0.0194 0.56637-0.0382h5.29e-4c0.05824-0.021 0.12425-0.0236 0.17725-0.0548 0.12849-0.0756 0.24018-0.17953 0.33073-0.3023 0.09049-0.12278 0.15957-0.2646 0.20206-0.41703 0.04231-0.15243 0.05785-0.31555 0.04186-0.48008-0.02027-0.15387-0.06609-0.29806-0.13332-0.42736-0.06724-0.1293-0.15609-0.2438-0.26097-0.33745-0.10675-0.0986-0.22885-0.14423-0.35037-0.16639-0.11099-0.0202-0.21868-0.0197-0.31574-0.0232z" fill="#ff0d68" style="font-feature-settings:normal;font-variant-caps:normal;font-variant-ligatures:normal;font-variant-numeric:normal"/>
<path d="m69.068 137.37c-0.42631 4e-3 -0.54462 0.0487-1.0793 0.0487-0.81839 0-1.517 0.27932-2.1757 0.67853-0.67866 0.37924-1.337 0.83864-1.7163 1.5173-0.37925 0.6587-0.51909 1.4368-0.51909 2.2552 0 0.79842 0.11967 1.5969 0.49891 2.2556 0.39923 0.67865 1.0384 1.1576 1.7171 1.5569 0.65871 0.37925 1.3767 0.53887 2.195 0.53887 1.0978 0 1.0982 0.17962 2.216 0.17962 1.0978 0 1.0976-0.17962 2.1954-0.17962 1.1178 0 1.1182 0.21998 2.216 0.21998 1.227-0.0133 1.2416-0.16378 1.4592-0.82057 0.04708-0.15877 0.06424-0.32872 0.04632-0.50009-0.02265-0.16028-0.07373-0.31045-0.14876-0.4451-0.07503-0.13466-0.17409-0.2538-0.2912-0.35134-0.31528-0.26223-0.70646-0.12206-1.0659-0.1183-1.0978 0-1.0978-0.1998-2.2156-0.1998-1.0978 0-1.098 0.0202-2.1958 0.0202-1.1178 0-1.1178 0.15945-2.2156 0.15945-0.6188 0-1.2176-0.27972-1.6368-0.67893-0.39924-0.41917-0.57844-1.018-0.57844-1.6368 0-0.61877 0.27934-1.1175 0.67853-1.5367 0.41918-0.39921 0.91788-0.77823 1.5367-0.77823 0.9233 2e-3 1.3794 0.18694 1.8967-0.2635 0.10105-0.12789 0.17852-0.27524 0.22592-0.43402 0.04709-0.15878 0.06424-0.32872 0.04632-0.5001-0.04793-0.33313-0.22548-0.58212-0.43996-0.79643-0.20055-0.15965-0.27398-0.16961-0.64964-0.1907z" fill="#ff0d68" style="font-feature-settings:normal;font-variant-caps:normal;font-variant-ligatures:normal;font-variant-numeric:normal"/>
<path d="m54.127 147.51c0.72714-0.21418 0.90241-0.17386 1.8437-0.17386 1.9198 0.0514 0.48151 0.10476 1.7926 0.10862 0.54307 0 1.05 0.32584 1.068 0.86891 0.018 0.57928-0.48875 1.1586-1.0499 1.1586-1.9902-0.26099-0.49029-0.013-2.3175 0-1.0696 0.17239-2.1562-1.0317-1.3369-1.9622z" fill="#787878" style="font-feature-settings:normal;font-variant-caps:normal;font-variant-ligatures:normal;font-variant-numeric:normal"/>
<path d="m58.097 140.77c-0.23169-0.0109-0.415-0.0304-0.9674 3e-3 -0.14293 9e-3 -0.27594 0.0499-0.394 0.11669-0.11801 0.0668-0.22123 0.15866-0.30489 0.26789-0.0836 0.10924-0.14778 0.23596-0.1876 0.37203-0.0398 0.13606-0.055 0.28186-0.0414 0.42912 0.0352 0.27552 0.16557 0.51748 0.35634 0.68634 0.1324 0.11724 0.3198 0.13832 0.49876 0.1719 0.19499 0.0191 0.35108 0.0433 0.70202 0.0433 0.27755 0 0.52973 7e-3 0.78422 0.0163 0.31662-6e-3 0.35286-0.012 0.50691-0.0746 0.12006-0.0706 0.22468-0.16759 0.30929-0.28232 0.0845-0.11472 0.14915-0.24715 0.18885-0.38959 0.0396-0.14244 0.0538-0.29483 0.0389-0.44857-0.0378-0.28758-0.17226-0.53957-0.36826-0.71458-0.0998-0.0921-0.21394-0.13487-0.3275-0.15558-0.26646-0.031-0.55841-0.0298-0.79426-0.0414z" fill="#a8a8a8" style="font-feature-settings:normal;font-variant-caps:normal;font-variant-ligatures:normal;font-variant-numeric:normal"/>
<path d="m60.167 145.88c0.36441-0.0233 0.47258-0.447 0.45633-1.0172-0.0466-0.65008-0.38441-0.75093-0.94722-0.77814-1.0027 0-0.60654-0.0426-1.6093-0.0426-1.0027 0-1.0031-0.12364-2.0058-0.12364-1.0027 0-1.0025 0.19353-2.0052 0.19353-1.1465-7e-3 -0.94105-0.19215-2.4675-0.1129-0.54534 0-1.0377 0.56303-1.0202 1.126 0.0178 0.52775 0.50979 0.84401 1.0376 0.84401 1.0609 2e-3 0.74211 6e-3 2.133 0.11349 0.91476 0 0.91484-0.0878 1.8296-0.0878 0.91474 0 0.91543-0.0179 1.8302-0.0179 0.91476 0 0.91481-0.0878 1.8296-0.0878 0.46949 0 0.69873-4e-3 0.93899-9e-3z" fill="#787878" style="font-feature-settings:normal;font-variant-caps:normal;font-variant-ligatures:normal;font-variant-numeric:normal"/>
<path d="m47.264 145.97c0.32114-3e-3 0.57712-0.0234 0.79498-0.0334 0.0678 0 0.18313-0.011 0.26188-7e-3 0.292-8e-3 0.52864-0.0243 0.70691-0.0478h6.35e-4c0.0546-0.0197 0.11645-0.0224 0.16617-0.0516 0.12047-0.0708 0.22544-0.16816 0.31035-0.28327 0.0847-0.11511 0.14963-0.24799 0.18946-0.3909 0.0397-0.14292 0.0533-0.29582 0.0384-0.45008-0.038-0.28854-0.17284-0.54138-0.3695-0.71698-0.10011-0.0925-0.21465-0.13532-0.32859-0.15611-0.3057-0.0332-0.6417-0.0321-0.91273-0.046-0.62071 2e-3 -1.0149 0.063-1.4459 0.063-0.16621-3e-3 -0.23602 0.0165-0.39091 0.0365-0.27839 0.0529-0.36002 0.048-0.48784 0.0661-0.11718 0.0166-0.28057 0.0415-0.94738 0-0.0426 3e-3 -0.0909 4e-3 -0.13407 7e-3 -0.13337 0.0151-0.26293 0.0536-0.37958 0.12401-0.12713 0.0768-0.24104 0.18169-0.33487 0.30467-0.0938 0.12298-0.16753 0.26412-0.21403 0.41294-0.0466 0.14882-0.0666 0.30525-0.0516 0.45952 0.0141 0.1446 0.0592 0.27286 0.12779 0.38272 0.0686 0.10986 0.16084 0.20127 0.26878 0.27382 0.12353 0.0954 1.1675 0.10043 1.6348 0.10135 0.52977 2e-3 1.0131-0.0216 1.497-0.0489z" fill="#ddd" style="font-feature-settings:normal;font-variant-caps:normal;font-variant-ligatures:normal;font-variant-numeric:normal"/>
<path d="m52.631 142.78c0.30525 7e-3 0.62729 0.0127 0.87022 0.0128 0.42111 0 0.62981-0.029 0.84221-0.057 0.0579-0.0142 0.11472-0.0355 0.1608-0.0497 0.11612-0.0683 0.2173-0.16209 0.29914-0.27305 0.0817-0.11096 0.14424-0.23905 0.18263-0.37681 0.0382-0.13777 0.0521-0.28515 0.0375-0.43385-0.0366-0.27814-0.1666-0.52186-0.35618-0.69112-0.0966-0.0891-0.2069-0.13045-0.31674-0.15048-0.10978-0.02-0.21904-0.0188-0.31248-0.0231-0.44341 0-0.73301-0.0493-1.1371-0.0431-0.55636 7.1e-4 -0.78771 0.0716-1.5752 0.0716-2.1469-0.0476-0.19574-0.0492-1.9914-0.054-0.53608 0-0.94726 0.42867-0.98298 0.96478-0.0177 0.57184 0.41082 1.0904 0.96478 1.0904 1.4189-0.0167 1.7262-0.022 2.0072-0.0244 0.45331-7e-3 0.8867 0.0317 1.3076 0.037z" fill="#ddd" style="font-feature-settings:normal;font-variant-caps:normal;font-variant-ligatures:normal;font-variant-numeric:normal"/>
<path d="m50.237 149.4v-4e-3c0.25637 5e-3 0.50269 0.01 0.81405 0.01 0.60297 6e-3 0.72715 9e-3 0.94897-0.10974 0.10987-0.0702 0.2056-0.16657 0.28303-0.2806 0.0773-0.11403 0.13647-0.24565 0.1728-0.38722 0.0362-0.14158 0.0492-0.29304 0.0356-0.44584-0.0347-0.28583-0.15763-0.53629-0.33699-0.71023-0.0913-0.0916-0.19576-0.13405-0.29968-0.15464-0.43554-0.0402-0.91279-0.0403-1.3038-0.0649-0.49343-0.0157-0.69853 0.11037-1.3973 0.11037-0.92988 0-0.93012-0.0736-1.86-0.0736-0.92989 0-0.93013 0.0917-1.8601 0.0917-0.92991 0-0.92958-0.14653-1.8595-0.14653-0.52415 0-0.93013 0.53224-0.91338 1.1199 0.0339 0.55092 0.42282 0.99206 0.93003 0.99206 0.92991 0 0.93016-0.0736 1.86-0.0736 0.92992 0 0.92984 0.14654 1.8428 0.14654 0.92992 0 0.93016-0.0729 1.86-0.0729 0.54178 0 0.80513 0.0277 1.0833 0.0536z" fill="#a8a8a8" style="font-feature-settings:normal;font-variant-caps:normal;font-variant-ligatures:normal;font-variant-numeric:normal"/>
<g fill="#c3c3c3">
<path d="m67.133 160.76c0.36131 0 0.60218-0.21637 0.60218-0.54093 0-0.31472-0.25182-0.55077-0.60218-0.55077h-2.1459v-1.7015h2.4634c0.35036 0 0.60218-0.22621 0.60218-0.54093 0-0.32456-0.25182-0.56061-0.60218-0.56061h-3.1642c-0.4051 0-0.66787 0.23605-0.66787 0.59995v5.311c0 0.3639 0.27372 0.59994 0.67882 0.59994s0.68976-0.23604 0.68976-0.59994v-2.0162z" style="font-feature-settings:normal;font-variant-caps:normal;font-variant-ligatures:normal;font-variant-numeric:normal"/>
<path d="m76.464 160.67c0.71166-0.34423 1.1387-0.97368 1.1387-1.7998 0-0.59994-0.22992-1.0819-0.68977-1.4556-0.45984-0.3639-1.0511-0.55077-1.7737-0.55077h-1.8613c-0.4051 0-0.66787 0.23605-0.66787 0.59995v5.311c0 0.3639 0.27372 0.59994 0.67882 0.59994 0.4051 0 0.68977-0.23604 0.68977-0.59994v-1.8195h1.1387l0.98538 2.026c0.12043 0.26555 0.33941 0.3934 0.63502 0.3934 0.3832 0 0.70071-0.27538 0.70071-0.61961 0-0.0688-0.01095-0.12785-0.0438-0.1967zm-1.4671-2.7342c0.75546 0 1.2153 0.37374 1.2153 0.96384 0 0.59995-0.45984 0.98352-1.2153 0.98352h-1.0182v-1.9474z" style="font-feature-settings:normal;font-variant-caps:normal;font-variant-ligatures:normal;font-variant-numeric:normal"/>
<path d="m85.741 161h-1.7189l0.85399-2.626zm0.08759-3.5603c-0.14233-0.39341-0.47079-0.62945-0.90874-0.62945-0.4489 0-0.75546 0.20654-0.89779 0.62945l-1.8284 5.1634c-0.02188 0.0787-0.03284 0.13769-0.03284 0.18686 0 0.32456 0.20803 0.58027 0.59123 0.58027 0.33941 0 0.58028-0.18686 0.65692-0.45241l0.28466-0.88516h2.3649l0.28466 0.86549c0.10948 0.31472 0.33941 0.47208 0.67882 0.47208 0.3832 0 0.63502-0.26554 0.63502-0.61961 0-0.059-0.01095-0.12785-0.03284-0.21637z" style="font-feature-settings:normal;font-variant-caps:normal;font-variant-ligatures:normal;font-variant-numeric:normal"/>
<path d="m93.617 157.22c-0.17518-0.26555-0.427-0.40324-0.74451-0.40324-0.39415 0-0.65692 0.23604-0.65692 0.59994v5.4192c0 0.31473 0.27372 0.54093 0.63502 0.54093 0.36131 0 0.63502-0.2262 0.63502-0.54093v-3.5603l1.0073 1.6818c0.14233 0.20654 0.33941 0.30489 0.59123 0.30489s0.43795-0.10818 0.58028-0.31472l0.98538-1.6425v3.5013c0 0.34423 0.26277 0.57043 0.64597 0.57043 0.3832 0 0.67882-0.2262 0.67882-0.57043v-5.3896c0-0.3639-0.27372-0.59994-0.66787-0.59994-0.31751 0-0.55838 0.13769-0.73356 0.40324l-1.4671 2.4588z" style="font-feature-settings:normal;font-variant-caps:normal;font-variant-ligatures:normal;font-variant-numeric:normal"/>
<path d="m106.06 160.58c0.36131 0 0.59123-0.20654 0.59123-0.5311 0-0.32455-0.22992-0.55076-0.59123-0.55076h-2.1569v-1.5343h2.4634c0.35035 0 0.60217-0.23604 0.60217-0.5606s-0.25182-0.54094-0.60217-0.54094h-3.1642c-0.4051 0-0.66787 0.23605-0.66787 0.59995v5.2618c0 0.3639 0.26277 0.59994 0.66787 0.59994h3.2627c0.36131 0 0.60218-0.22621 0.60218-0.55077 0-0.31472-0.25182-0.55076-0.60218-0.55076h-2.562v-1.6425z" style="font-feature-settings:normal;font-variant-caps:normal;font-variant-ligatures:normal;font-variant-numeric:normal"/>
<path d="m118.93 157.49c0.011-0.0295 0.011-0.059 0.011-0.10818 0-0.32456-0.27371-0.57044-0.62407-0.57044-0.31751 0-0.54743 0.18687-0.62407 0.46225l-0.85401 3.9439-0.79925-3.816c-0.0766-0.7278-1.4014-0.71797-1.4562 0l-0.81019 3.8554-0.84305-3.9439c-0.0547-0.30489-0.32847-0.50159-0.64598-0.50159-0.3832 0-0.65691 0.24588-0.65691 0.59011 0 0.059 0 0.0983 0.011 0.11802l1.3357 5.3011c0.0876 0.71796 1.4124 0.71796 1.4781 0l0.82115-3.875 0.83209 3.875c0.0547 0.32456 0.36131 0.55076 0.74451 0.55076 0.36131 0 0.65692-0.20653 0.74451-0.55076z" style="font-feature-settings:normal;font-variant-caps:normal;font-variant-ligatures:normal;font-variant-numeric:normal"/>
<path d="m124.86 158.94c0-0.65896 0.43795-1.072 1.1715-1.072s1.1606 0.41307 1.1606 1.072v2.3112c0 0.65895-0.427 1.072-1.1606 1.072s-1.1715-0.41308-1.1715-1.072zm3.7006-0.0197c0-0.65896-0.22993-1.1802-0.68977-1.5736-0.47079-0.38357-1.0839-0.58028-1.8394-0.58028-1.6204 0-2.5401 0.81632-2.5401 2.1539v2.3506c0 0.65895 0.22992 1.1802 0.70072 1.5638 0.47079 0.39341 1.0839 0.59011 1.8394 0.59011s1.3686-0.1967 1.8394-0.59011c0.45984-0.38357 0.68977-0.90483 0.68977-1.5638z" style="font-feature-settings:normal;font-variant-caps:normal;font-variant-ligatures:normal;font-variant-numeric:normal"/>
<path d="m136.98 160.67c0.71166-0.34423 1.1387-0.97368 1.1387-1.7998 0-0.59994-0.22993-1.0819-0.68976-1.4556-0.45985-0.3639-1.0511-0.55077-1.7737-0.55077h-1.8613c-0.40509 0-0.66786 0.23605-0.66786 0.59995v5.311c0 0.3639 0.27371 0.59994 0.67881 0.59994s0.68977-0.23604 0.68977-0.59994v-1.8195h1.1387l0.98538 2.026c0.12043 0.26555 0.3394 0.3934 0.63502 0.3934 0.3832 0 0.70071-0.27538 0.70071-0.61961 0-0.0688-0.011-0.12785-0.0438-0.1967zm-1.4671-2.7342c0.75546 0 1.2153 0.37374 1.2153 0.96384 0 0.59995-0.45984 0.98352-1.2153 0.98352h-1.0182v-1.9474z" style="font-feature-settings:normal;font-variant-caps:normal;font-variant-ligatures:normal;font-variant-numeric:normal"/>
<path d="m147.35 157.69c0.0548-0.0885 0.0876-0.18686 0.0876-0.29505 0-0.32456-0.28467-0.58027-0.64597-0.58027-0.24087 0-0.427 0.0885-0.54744 0.26555l-2.2007 2.8915v-2.5571c0-0.35406-0.29561-0.59994-0.7007-0.59994-0.40511 0-0.66788 0.23604-0.66788 0.59994v5.3601c0 0.3639 0.27373 0.59994 0.67882 0.59994s0.68976-0.23604 0.68976-0.59994v-0.94417l0.95254-1.1999 1.3029 2.3506c0.14233 0.26555 0.36131 0.3934 0.65691 0.3934 0.38321 0 0.68977-0.27538 0.68977-0.61961 0-0.0885-0.0218-0.17703-0.0657-0.26555l-1.6751-2.9112z" style="font-feature-settings:normal;font-variant-caps:normal;font-variant-ligatures:normal;font-variant-numeric:normal"/>
</g>
</g>
</svg>