<svg width="1097" height="300" viewBox="0 0 1097 300" fill="none" xmlns="http://www.w3.org/2000/svg">
<path d="M203.568 179.838H124.639L208.736 95.5946C209.529 94.8 210.068 93.7877 210.287 92.6858C210.505 91.5839 210.394 90.4417 209.964 89.4038C209.535 88.3659 208.808 87.4788 207.876 86.8544C206.944 86.2301 205.848 85.8968 204.726 85.8964H71.1637V30.0042H217.663C228.418 29.8731 238.989 32.7993 248.15 38.4438C257.311 44.0882 264.687 52.2192 269.422 61.8934C274.31 72.2401 275.881 83.8491 273.919 95.126C271.957 106.403 266.558 116.795 258.463 124.874L203.568 179.838Z" fill="white"/>
<path d="M71.1643 112.817H150.097L66.1693 196.89C65.3631 197.699 64.8142 198.729 64.5919 199.85C64.3697 200.971 64.4843 202.132 64.9208 203.188C65.3572 204.244 66.0956 205.146 67.0439 205.782C67.9921 206.417 69.1075 206.757 70.2483 206.758H203.434V262.65H57.0764C46.3219 262.781 35.7517 259.854 26.5906 254.209C17.4294 248.565 10.0529 240.434 5.31781 230.761C0.429973 220.414 -1.14035 208.805 0.822574 197.528C2.7855 186.251 8.18587 175.859 16.2811 167.78L71.1643 112.817Z" fill="white"/>
<path d="M620.897 155.773C620.897 175.702 613.141 187.899 594.946 187.602C578.242 187.305 569.592 175.107 569.592 155.48V80.2208H528.435V158.448C528.435 196.229 551.998 223.001 594.946 223.298C634.319 223.595 662.058 194.743 662.058 158.749V80.2208H620.897V155.773Z" fill="white"/>
<path d="M1020.69 76.9357C976.25 76.9357 944.952 108.467 944.952 150.111C944.952 191.755 976.271 223.286 1020.69 223.286C1065.12 223.286 1096.43 191.755 1096.43 150.111C1096.43 108.467 1065.13 76.9357 1020.69 76.9357ZM1020.69 187.887C1000.11 187.887 985.513 172.421 985.513 150.111C985.513 127.801 1000.13 112.33 1020.69 112.33C1041.26 112.33 1055.87 127.801 1055.87 150.111C1055.87 172.421 1041.27 187.887 1020.69 187.887Z" fill="white"/>
<path d="M764.745 76.9352C720.302 76.9352 689.004 108.467 689.004 150.111C689.004 150.664 689.069 151.196 689.078 151.761H689.004V270.052H729.565V215.625C740.574 220.755 752.593 223.369 764.745 223.277C809.188 223.277 840.485 191.746 840.485 150.102C840.485 108.458 809.188 76.9352 764.745 76.9352ZM764.745 187.887C744.162 187.887 729.565 172.421 729.565 150.111C729.565 127.801 744.179 112.33 764.745 112.33C785.311 112.33 799.925 127.801 799.925 150.111C799.925 172.421 785.327 187.887 764.745 187.887Z" fill="white"/>
<path d="M374.011 115.578H455.116L374.011 178.963V220.013H505.366V184.643H424.066L505.366 121.097V80.2084H374.011V115.578Z" fill="white"/>
<path d="M932.767 220.012H919.033C904.229 219.996 890.036 214.124 879.568 203.684C869.1 193.244 863.212 179.09 863.196 164.326V30.0403H904.584V164.326C904.594 168.145 906.12 171.804 908.827 174.504C911.535 177.204 915.204 178.726 919.033 178.736H932.767V220.012Z" fill="white"/>
</svg>
