<?xml version="1.0" standalone="no"?>
<!DOCTYPE svg PUBLIC "-//W3C//DTD SVG 20010904//EN"
 "http://www.w3.org/TR/2001/REC-SVG-20010904/DTD/svg10.dtd">
<svg version="1.0" xmlns="http://www.w3.org/2000/svg"
 width="700.000000pt" height="700.000000pt" viewBox="0 0 700.000000 700.000000"
 preserveAspectRatio="xMidYMid meet">
<metadata>
Created by potrace 1.14, written by Peter Selinger 2001-2017
</metadata>
<g transform="translate(0.000000,700.000000) scale(0.100000,-0.100000)"
fill="#000000" stroke="none">
<path d="M3308 6656 c-1 -2 -40 -6 -86 -10 -128 -10 -269 -32 -452 -71 -57
-12 -252 -71 -330 -99 -301 -109 -601 -270 -829 -443 -189 -145 -440 -386
-564 -543 -37 -47 -71 -90 -77 -97 -17 -21 -135 -196 -177 -264 -70 -112 -187
-350 -240 -489 -67 -174 -146 -460 -168 -605 -3 -22 -10 -67 -15 -100 -17
-115 -25 -251 -25 -445 1 -235 9 -334 41 -520 8 -47 17 -98 20 -115 3 -16 19
-81 35 -144 123 -471 334 -878 659 -1266 60 -72 243 -254 330 -330 130 -112
323 -255 412 -305 15 -8 67 -38 115 -65 117 -67 268 -139 393 -188 146 -57
400 -132 520 -153 25 -4 47 -8 50 -9 10 -2 146 -25 180 -30 142 -20 536 -27
680 -12 170 18 197 22 275 37 28 5 64 11 80 14 130 22 431 114 560 171 17 7
66 29 110 49 96 42 244 118 310 160 84 54 261 170 265 176 3 3 43 35 90 72
162 127 369 332 491 488 24 30 46 57 50 60 12 10 157 227 204 305 142 235 306
632 350 845 2 8 8 35 14 60 17 78 28 131 36 185 3 22 10 67 15 100 32 201 34
584 5 820 -18 150 -70 394 -109 520 -2 6 -4 12 -4 15 -3 25 -95 261 -139 360
-100 223 -199 391 -355 605 -113 154 -342 396 -488 515 -30 25 -59 50 -65 56
-17 19 -261 194 -270 194 -2 0 -24 13 -47 29 -82 55 -391 215 -438 226 -3 1
-23 9 -45 19 -80 35 -349 121 -440 140 -59 13 -125 26 -148 30 -15 3 -53 9
-85 15 -31 6 -84 13 -117 17 -33 4 -73 9 -90 11 -37 5 -482 13 -487 9z"/>
</g>
</svg>
